<svg xmlns="http://www.w3.org/2000/svg" viewBox="0 0 24 24" fill="none" shape-rendering="auto"><metadata xmlns:rdf="http://www.w3.org/1999/02/22-rdf-syntax-ns#" xmlns:xsi="http://www.w3.org/2001/XMLSchema-instance" xmlns:dc="http://purl.org/dc/elements/1.1/" xmlns:dcterms="http://purl.org/dc/terms/"><rdf:RDF><rdf:Description><dc:title>Bootstrap Icons</dc:title><dc:creator>The Bootstrap Authors</dc:creator><dc:source xsi:type="dcterms:URI">https://github.com/twbs/icons</dc:source><dcterms:license xsi:type="dcterms:URI">https://github.com/twbs/icons/blob/main/LICENSE</dcterms:license><dc:rights>„Bootstrap Icons” (https://github.com/twbs/icons) by „The Bootstrap Authors”, licensed under „MIT” (https://github.com/twbs/icons/blob/main/LICENSE)</dc:rights></rdf:Description></rdf:RDF></metadata><mask id="viewboxMask"><rect width="24" height="24" rx="0" ry="0" x="0" y="0" fill="#fff" /></mask><g mask="url(#viewboxMask)"><rect fill="#a5d6a7" width="24" height="24" x="0" y="0" /><g transform="translate(4 4)"><g fill="#fff"><path d="M8.211 2.047a.5.5 0 0 0-.422 0l-7.5 3.5a.5.5 0 0 0 .025.917l7.5 3a.5.5 0 0 0 .372 0L14 7.14V13a1 1 0 0 0-1 1v2h3v-2a1 1 0 0 0-1-1V6.739l.686-.275a.5.5 0 0 0 .025-.917l-7.5-3.5ZM8 8.46 1.758 5.965 8 3.052l6.242 2.913L8 8.46Z"/><path d="M4.176 9.032a.5.5 0 0 0-.656.327l-.5 1.7a.5.5 0 0 0 .294.605l4.5 1.8a.5.5 0 0 0 .372 0l4.5-1.8a.5.5 0 0 0 .294-.605l-.5-1.7a.5.5 0 0 0-.656-.327L8 10.466 4.176 9.032Zm-.068 1.873.22-.748 3.496 1.311a.5.5 0 0 0 .352 0l3.496-1.31.22.747L8 12.46l-3.892-1.556v.001Z"/></g></g></g></svg>